<?xml version="1.0" encoding="utf-8"?>
<!-- Generator: Adobe Illustrator 25.3.1, SVG Export Plug-In . SVG Version: 6.00 Build 0)  -->
<svg version="1.1" id="Layer_1" xmlns="http://www.w3.org/2000/svg" xmlns:xlink="http://www.w3.org/1999/xlink" x="0px" y="0px"
	 viewBox="0 0 133.1 49.4" style="enable-background:new 0 0 133.1 49.4;" xml:space="preserve">
<style type="text/css">
	.st0{enable-background:new    ;}
</style>
<g>
	<g class="st0">
		<path d="M20.4,18.6H6.2v12.6H2.6V3.3h3.6v12.2h14.2V3.3h3.6v27.9h-3.6V18.6z"/>
		<path d="M39.8,31.6c-6.2,0-10.9-4.4-10.9-11.4c0-6.9,4.9-11.3,11.1-11.3c6.2,0,11.1,4.4,11.1,11.3C51,27.2,46,31.6,39.8,31.6z
			 M39.8,28.4c3.8,0,7.5-2.6,7.5-8.2c0-5.5-3.6-8.1-7.4-8.1c-3.8,0-7.3,2.6-7.3,8.1C32.6,25.8,36,28.4,39.8,28.4z"/>
		<path d="M55.2,3.3c0-1.4,1.1-2.5,2.5-2.5c1.3,0,2.4,1.1,2.4,2.5c0,1.4-1.1,2.5-2.4,2.5C56.3,5.7,55.2,4.7,55.2,3.3z M55.8,9.3h3.6
			v21.9h-3.6V9.3z"/>
		<path d="M73.4,31.6c-5.1,0-8.7-2.8-9-6.8h3.8c0.2,2.1,2.1,3.7,5.2,3.7c2.9,0,4.5-1.4,4.5-3.2c0-4.9-13-2-13-10.2
			c0-3.4,3.2-6.1,8-6.1c4.8,0,8,2.6,8.3,6.9h-3.6c-0.2-2.2-1.8-3.8-4.8-3.8c-2.7,0-4.3,1.3-4.3,3c0,5.2,12.7,2.4,12.9,10.2
			C81.4,28.9,78.3,31.6,73.4,31.6z"/>
		<path d="M87.3,12.3h-2.8v-3h2.8V3.8H91v5.5h5.7v3H91v12.9c0,2.2,0.8,2.9,3,2.9h2.7v3.1h-3.3c-3.9,0-6.1-1.6-6.1-6V12.3z"/>
		<path d="M100.5,3.3c0-1.4,1.1-2.5,2.5-2.5c1.3,0,2.4,1.1,2.4,2.5c0,1.4-1.1,2.5-2.4,2.5C101.6,5.7,100.5,4.7,100.5,3.3z
			 M101.1,9.3h3.6v21.9h-3.6V9.3z"/>
		<path d="M127,18.8c0-4.5-2.4-6.8-6.1-6.8c-3.7,0-6.3,2.3-6.3,7v12.1h-3.6V9.3h3.6v3.1c1.4-2.3,4.1-3.5,7-3.5c5.1,0,9,3.1,9,9.4
			v12.9H127V18.8z"/>
	</g>
	<g class="st0">
		<path d="M4.2,43.6H3v2.6H2.2v-6.3h2c1.5,0,2.2,0.8,2.2,1.8C6.4,42.7,5.8,43.6,4.2,43.6z M4.2,42.9c0.9,0,1.3-0.4,1.3-1.1
			c0-0.7-0.4-1.2-1.3-1.2H3v2.3H4.2z"/>
		<path d="M8.2,46.2H7.4v-4.9h0.8v0.8c0.3-0.5,0.8-0.9,1.6-0.9V42H9.6c-0.8,0-1.4,0.4-1.4,1.5V46.2z"/>
		<path d="M12.9,46.3c-1.4,0-2.5-1-2.5-2.6c0-1.6,1.1-2.5,2.5-2.5c1.4,0,2.5,1,2.5,2.5C15.4,45.3,14.3,46.3,12.9,46.3z M12.9,45.6
			c0.9,0,1.7-0.6,1.7-1.8c0-1.2-0.8-1.8-1.7-1.8c-0.9,0-1.6,0.6-1.6,1.8C11.3,45,12.1,45.6,12.9,45.6z"/>
		<path d="M17.4,41.3v6c0,0.9-0.5,1.3-1.3,1.3h-0.5v-0.7h0.3c0.5,0,0.6-0.2,0.6-0.6v-6H17.4z M16.4,39.9c0-0.3,0.2-0.6,0.5-0.6
			s0.5,0.2,0.5,0.6s-0.2,0.6-0.5,0.6S16.4,40.2,16.4,39.9z"/>
		<path d="M20.9,46.3c-1.4,0-2.4-1-2.4-2.6c0-1.6,1-2.5,2.4-2.5c1.4,0,2.4,1,2.4,2.4c0,0.2,0,0.3,0,0.5h-3.9c0.1,1,0.8,1.5,1.6,1.5
			c0.7,0,1.2-0.4,1.4-0.9h0.9C22.9,45.6,22.1,46.3,20.9,46.3z M19.3,43.4h3.1c0-1-0.7-1.5-1.6-1.5C20.1,41.9,19.4,42.4,19.3,43.4z"
			/>
		<path d="M26.4,41.2c1.2,0,2,0.6,2.3,1.7h-0.9c-0.2-0.6-0.7-1-1.4-1c-0.9,0-1.6,0.6-1.6,1.8c0,1.2,0.7,1.9,1.6,1.9
			c0.7,0,1.2-0.4,1.4-1h0.9c-0.3,1-1.1,1.7-2.3,1.7c-1.4,0-2.4-1-2.4-2.6C24,42.2,25,41.2,26.4,41.2z"/>
		<path d="M30,42h-0.6v-0.7H30V40h0.8v1.2h1.3V42h-1.3v2.9c0,0.5,0.2,0.7,0.7,0.7h0.6v0.7h-0.7c-0.9,0-1.4-0.4-1.4-1.4V42z"/>
		<path d="M35.5,40h0.9l2.3,5.1L41,40h0.9v6.2H41v-4.6L39,46.2h-0.6l-2.1-4.7v4.7h-0.8V40z"/>
		<path d="M45.3,41.2c0.9,0,1.5,0.5,1.8,1v-0.9h0.8v4.9h-0.8v-0.9c-0.3,0.5-0.9,1-1.8,1c-1.3,0-2.3-1-2.3-2.6
			C42.9,42.2,43.9,41.2,45.3,41.2z M45.4,41.9c-0.9,0-1.7,0.7-1.7,1.8c0,1.2,0.8,1.8,1.7,1.8c0.9,0,1.7-0.7,1.7-1.8
			C47.1,42.6,46.3,41.9,45.4,41.9z"/>
		<path d="M52.9,43.4c0-1-0.5-1.5-1.4-1.5c-0.8,0-1.4,0.5-1.4,1.6v2.7h-0.8v-4.9h0.8V42c0.3-0.5,0.9-0.8,1.6-0.8c1.1,0,2,0.7,2,2.1
			v2.9h-0.8V43.4z"/>
		<path d="M57.1,41.2c0.9,0,1.5,0.5,1.8,1v-0.9h0.8v4.9h-0.8v-0.9c-0.3,0.5-0.9,1-1.8,1c-1.3,0-2.3-1-2.3-2.6
			C54.8,42.2,55.8,41.2,57.1,41.2z M57.3,41.9c-0.9,0-1.7,0.7-1.7,1.8c0,1.2,0.8,1.8,1.7,1.8c0.9,0,1.7-0.7,1.7-1.8
			C58.9,42.6,58.2,41.9,57.3,41.9z"/>
		<path d="M63.2,41.2c0.9,0,1.5,0.5,1.8,1v-0.9h0.8v5c0,1.4-0.9,2.3-2.4,2.3c-1.3,0-2.2-0.7-2.4-1.7h0.8c0.2,0.6,0.8,1,1.6,1
			c0.9,0,1.5-0.6,1.5-1.6v-1c-0.3,0.5-0.9,1-1.8,1c-1.3,0-2.3-1-2.3-2.6C60.9,42.2,61.9,41.2,63.2,41.2z M63.4,41.9
			c-0.9,0-1.7,0.7-1.7,1.8c0,1.2,0.8,1.8,1.7,1.8c0.9,0,1.7-0.7,1.7-1.8C65,42.6,64.3,41.9,63.4,41.9z"/>
		<path d="M69.4,46.3c-1.4,0-2.4-1-2.4-2.6c0-1.6,1-2.5,2.4-2.5c1.4,0,2.4,1,2.4,2.4c0,0.2,0,0.3,0,0.5h-3.9c0.1,1,0.8,1.5,1.6,1.5
			c0.7,0,1.2-0.4,1.4-0.9h0.9C71.4,45.6,70.6,46.3,69.4,46.3z M67.8,43.4h3.1c0-1-0.7-1.5-1.6-1.5C68.5,41.9,67.9,42.4,67.8,43.4z"
			/>
		<path d="M79.9,43.4c0-1-0.5-1.5-1.4-1.5c-0.8,0-1.4,0.5-1.4,1.6v2.7h-0.8v-2.8c0-1-0.5-1.5-1.4-1.5c-0.8,0-1.4,0.5-1.4,1.6v2.7
			h-0.8v-4.9h0.8V42c0.3-0.5,0.9-0.8,1.6-0.8c0.8,0,1.5,0.4,1.8,1.1c0.3-0.7,1-1.1,1.7-1.1c1.1,0,2,0.7,2,2.1v2.9h-0.8V43.4z"/>
		<path d="M84.2,46.3c-1.4,0-2.4-1-2.4-2.6c0-1.6,1-2.5,2.4-2.5c1.4,0,2.4,1,2.4,2.4c0,0.2,0,0.3,0,0.5h-3.9c0.1,1,0.8,1.5,1.6,1.5
			c0.7,0,1.2-0.4,1.4-0.9h0.9C86.2,45.6,85.4,46.3,84.2,46.3z M82.6,43.4h3.1c0-1-0.7-1.5-1.6-1.5C83.4,41.9,82.7,42.4,82.6,43.4z"
			/>
		<path d="M91.3,43.4c0-1-0.5-1.5-1.4-1.5c-0.8,0-1.4,0.5-1.4,1.6v2.7h-0.8v-4.9h0.8V42c0.3-0.5,0.9-0.8,1.6-0.8c1.1,0,2,0.7,2,2.1
			v2.9h-0.8V43.4z"/>
		<path d="M93.6,42H93v-0.7h0.6V40h0.8v1.2h1.3V42h-1.3v2.9c0,0.5,0.2,0.7,0.7,0.7h0.6v0.7H95c-0.9,0-1.4-0.4-1.4-1.4V42z"/>
		<path d="M101.1,46.3c-1.3,0-2.2-0.7-2.2-1.7h0.9c0.1,0.5,0.4,1,1.3,1c0.8,0,1.3-0.5,1.3-1c0-1.7-3.4-0.6-3.4-2.9
			c0-1,0.8-1.7,2.1-1.7c1.2,0,2,0.7,2.1,1.6h-0.9c-0.1-0.4-0.4-0.9-1.2-0.9c-0.7,0-1.2,0.3-1.2,1c0,1.6,3.4,0.6,3.4,2.9
			C103.2,45.4,102.5,46.3,101.1,46.3z"/>
		<path d="M107.8,41.3h0.8l-3,7.3h-0.8l1-2.4l-2-4.9h0.9l1.5,4L107.8,41.3z"/>
		<path d="M111.2,46.3c-1.2,0-2-0.6-2-1.5h0.8c0,0.5,0.5,0.8,1.2,0.8c0.6,0,1-0.3,1-0.7c0-1.1-2.9-0.5-2.9-2.3
			c0-0.8,0.7-1.4,1.8-1.4c1.1,0,1.8,0.6,1.9,1.5h-0.8c0-0.5-0.4-0.9-1.1-0.9c-0.6,0-1,0.3-1,0.7c0,1.2,2.9,0.5,2.9,2.3
			C113,45.7,112.3,46.3,111.2,46.3z"/>
		<path d="M114.3,42h-0.6v-0.7h0.6V40h0.8v1.2h1.3V42h-1.3v2.9c0,0.5,0.2,0.7,0.7,0.7h0.6v0.7h-0.7c-0.9,0-1.4-0.4-1.4-1.4V42z"/>
		<path d="M119.6,46.3c-1.4,0-2.4-1-2.4-2.6c0-1.6,1-2.5,2.4-2.5c1.4,0,2.4,1,2.4,2.4c0,0.2,0,0.3,0,0.5H118c0.1,1,0.8,1.5,1.6,1.5
			c0.7,0,1.2-0.4,1.4-0.9h0.9C121.6,45.6,120.8,46.3,119.6,46.3z M118,43.4h3.1c0-1-0.7-1.5-1.6-1.5C118.7,41.9,118.1,42.4,118,43.4
			z"/>
		<path d="M130.1,43.4c0-1-0.5-1.5-1.3-1.5c-0.8,0-1.4,0.5-1.4,1.6v2.7h-0.8v-2.8c0-1-0.5-1.5-1.4-1.5c-0.8,0-1.4,0.5-1.4,1.6v2.7
			H123v-4.9h0.8V42c0.3-0.5,0.9-0.8,1.6-0.8c0.8,0,1.5,0.4,1.8,1.1c0.3-0.7,1-1.1,1.7-1.1c1.1,0,2,0.7,2,2.1v2.9h-0.8V43.4z"/>
	</g>
</g>
</svg>
