<?xml version="1.0" encoding="utf-8"?>
<!-- Generator: Adobe Illustrator 25.3.1, SVG Export Plug-In . SVG Version: 6.00 Build 0)  -->
<svg version="1.1" id="Layer_1" xmlns="http://www.w3.org/2000/svg" xmlns:xlink="http://www.w3.org/1999/xlink" x="0px" y="0px"
	 viewBox="0 0 140 35.2" style="enable-background:new 0 0 140 35.2;" xml:space="preserve">
<style type="text/css">
	.st0{enable-background:new    ;}
</style>
<g class="st0">
	<path d="M25.7,5.2v27.9h-5.6V21.2h-12v11.9H2.6V5.2h5.6v11.5h12V5.2H25.7z"/>
	<path d="M35.3,32c-1.7-0.9-3-2.3-4-4c-1-1.7-1.5-3.7-1.5-6s0.5-4.3,1.5-6s2.4-3.1,4.1-4c1.7-0.9,3.7-1.4,5.8-1.4S45.3,11,47,12
		c1.7,0.9,3.1,2.3,4.1,4s1.5,3.7,1.5,6s-0.5,4.3-1.5,6c-1,1.7-2.4,3.1-4.2,4c-1.7,0.9-3.7,1.4-5.9,1.4C38.9,33.4,37,33,35.3,32z
		 M43.9,27.8c0.9-0.5,1.6-1.2,2.1-2.2c0.5-1,0.8-2.2,0.8-3.6c0-2.1-0.6-3.7-1.7-4.9c-1.1-1.1-2.5-1.7-4.1-1.7c-1.6,0-2.9,0.6-4,1.7
		c-1.1,1.1-1.6,2.8-1.6,4.9c0,2.1,0.5,3.7,1.6,4.9c1.1,1.1,2.4,1.7,4,1.7C42.1,28.6,43,28.3,43.9,27.8z"/>
	<path d="M57.1,7.3c-0.7-0.6-1-1.4-1-2.3c0-0.9,0.3-1.7,1-2.3c0.7-0.6,1.5-0.9,2.5-0.9c1,0,1.8,0.3,2.5,0.9c0.7,0.6,1,1.4,1,2.3
		c0,0.9-0.3,1.7-1,2.3c-0.7,0.6-1.5,0.9-2.5,0.9C58.6,8.3,57.8,8,57.1,7.3z M62.4,10.9v22.2h-5.6V10.9H62.4z"/>
	<path d="M71.5,32.5c-1.4-0.7-2.6-1.5-3.4-2.7s-1.3-2.4-1.4-3.7h5.6c0.1,0.9,0.5,1.6,1.3,2.1c0.7,0.6,1.6,0.8,2.7,0.8
		c1.1,0,1.9-0.2,2.5-0.6s0.9-1,0.9-1.6c0-0.7-0.4-1.3-1.1-1.6c-0.7-0.4-1.9-0.8-3.5-1.2c-1.7-0.4-3-0.8-4.1-1.2
		c-1.1-0.4-2-1.1-2.7-2c-0.8-0.9-1.1-2.1-1.1-3.6c0-1.2,0.4-2.3,1.1-3.4c0.7-1,1.7-1.8,3-2.4c1.3-0.6,2.9-0.9,4.7-0.9
		c2.6,0,4.7,0.7,6.3,2s2.4,3.1,2.6,5.3h-5.4c-0.1-0.9-0.4-1.6-1.1-2.1c-0.7-0.5-1.5-0.8-2.6-0.8c-1,0-1.8,0.2-2.3,0.6
		c-0.5,0.4-0.8,0.9-0.8,1.6c0,0.7,0.4,1.3,1.1,1.7s1.9,0.8,3.5,1.2c1.6,0.4,2.9,0.8,4,1.2s1.9,1.1,2.7,2c0.8,0.9,1.2,2.1,1.2,3.5
		c0,1.3-0.4,2.4-1.1,3.4c-0.7,1-1.7,1.8-3,2.4s-2.9,0.9-4.6,0.9C74.5,33.4,72.9,33.1,71.5,32.5z"/>
	<path d="M96.2,15.5v10.7c0,0.7,0.2,1.3,0.5,1.6c0.4,0.3,1,0.5,1.8,0.5h2.6v4.7h-3.5c-4.7,0-7.1-2.3-7.1-6.9V15.5h-2.6v-4.6h2.6V5.4
		h5.6v5.5h5v4.6H96.2z"/>
	<path d="M105.6,7.3c-0.7-0.6-1-1.4-1-2.3c0-0.9,0.3-1.7,1-2.3c0.7-0.6,1.5-0.9,2.5-0.9s1.8,0.3,2.5,0.9c0.7,0.6,1,1.4,1,2.3
		c0,0.9-0.3,1.7-1,2.3C109.8,8,109,8.3,108,8.3S106.2,8,105.6,7.3z M110.8,10.9v22.2h-5.6V10.9H110.8z"/>
	<path d="M135,13.1c1.6,1.7,2.4,4,2.4,7v13h-5.6V20.8c0-1.8-0.4-3.1-1.3-4.1c-0.9-0.9-2.1-1.4-3.6-1.4c-1.5,0-2.8,0.5-3.7,1.4
		c-0.9,0.9-1.3,2.3-1.3,4.1v12.2h-5.6V10.9h5.6v2.8c0.7-1,1.7-1.7,2.9-2.3c1.2-0.5,2.4-0.8,3.8-0.8C131.2,10.6,133.4,11.4,135,13.1z
		"/>
</g>
</svg>
