<svg xmlns="http://www.w3.org/2000/svg" width="86" height="86" viewBox="0 0 86 86">
  <g id="happy-emoji" transform="translate(-4455 106)">
    <circle id="Ellipse_53" data-name="Ellipse 53" cx="43" cy="43" r="43" transform="translate(4455 -106)" fill="#fff"/>
    <circle id="Ellipse_48" data-name="Ellipse 48" cx="40" cy="40" r="40" transform="translate(4458 -103)" fill="#ffe470"/>
    <g id="Group_125" data-name="Group 125" transform="translate(4465 -97)">
      <path id="Path_239" data-name="Path 239" d="M617.255,306.451a39.756,39.756,0,0,1-54.293,55.291,39.753,39.753,0,1,0,54.293-55.291Z" transform="translate(-562.962 -306.451)" fill="#ffd400"/>
    </g>
    <path id="Path_241" data-name="Path 241" d="M597.291,391.656a1.312,1.312,0,0,0-2.134,1.431,19.925,19.925,0,0,0,36.847.366,1.31,1.31,0,0,0-2.118-1.447C624.069,397.646,611.719,405.672,597.291,391.656Z" transform="translate(3884.167 -448.892)" fill="#5e4939"/>
    <g id="Group_128" data-name="Group 128" transform="translate(4473.773 -73.576)">
      <path id="Path_242" data-name="Path 242" d="M597.09,361.688a7.365,7.365,0,0,0-13.62-.135,1.184,1.184,0,0,0,1.914,1.31c2.205-2.139,5.692-3.855,9.78.116a1.184,1.184,0,0,0,1.926-1.29Z" transform="translate(-583.375 -357.059)" fill="#303030"/>
      <path id="Path_243" data-name="Path 243" d="M670.32,361.688a7.364,7.364,0,0,0-13.619-.136,1.184,1.184,0,0,0,1.914,1.31c2.2-2.139,5.691-3.855,9.779.116a1.184,1.184,0,0,0,1.926-1.29Z" transform="translate(-622.454 -357.059)" fill="#303030"/>
    </g>
    <g id="Group_130" data-name="Group 130" transform="translate(4461.585 -64.35)">
      <circle id="Ellipse_49" data-name="Ellipse 49" cx="6.94" cy="6.94" r="6.94" transform="translate(0)" fill="#ff9f00"/>
      <circle id="Ellipse_50" data-name="Ellipse 50" cx="6.94" cy="6.94" r="6.94" transform="translate(58.45 0)" fill="#ff9f00"/>
    </g>
  </g>
</svg>
