<svg xmlns="http://www.w3.org/2000/svg" width="30.831" height="35.76" viewBox="0 0 30.831 35.76">
  <g id="pro-realized-icon" transform="translate(-2848.585 80)">
    <circle id="Ellipse_43" data-name="Ellipse 43" cx="6.864" cy="6.864" r="6.864" transform="translate(2860.238 -74.051)" fill="#3699ff"/>
    <path id="Path_185" data-name="Path 185" d="M294.708,29.459V34.5l-3.173.571a9.05,9.05,0,0,1-1.578,2.729l1.093,3.036-4.363,2.519-2.081-2.464a9.117,9.117,0,0,1-1.577.137l-1.416-1.979,1.416-2.286a4.783,4.783,0,0,0,0-9.565l-1.416-2.453,1.416-1.812a9.119,9.119,0,0,1,1.577.137l2.081-2.464,4.363,2.519-1.093,3.037a9.041,9.041,0,0,1,1.578,2.729Z" transform="translate(2584.176 -99.164)" fill="#f9e6d9"/>
    <path id="Path_186" data-name="Path 186" d="M146.239,7.6V32.93h-3.407a1.912,1.912,0,0,1-1.913-1.913,2.277,2.277,0,0,0-1.03-1.912,11.689,11.689,0,0,1,6.181-21.5Z" transform="translate(2720.966 -87.073)" fill="#3699ff"/>
    <g id="Group_84" data-name="Group 84" transform="translate(2861.885 -54.143)">
      <path id="Path_188" data-name="Path 188" d="M234.879,373.39H227.2a1.482,1.482,0,0,1-1.481-1.481v-.22a1.482,1.482,0,0,1,1.481-1.481h7.678a1.481,1.481,0,0,1,1.481,1.481v.22A1.481,1.481,0,0,1,234.879,373.39Z" transform="translate(-225.719 -370.207)" fill="#f9e6d9"/>
      <path id="Path_189" data-name="Path 189" d="M234.879,418.967H227.2a1.482,1.482,0,0,1-1.481-1.481v-.22a1.482,1.482,0,0,1,1.481-1.481h7.678a1.482,1.482,0,0,1,1.481,1.481v.22A1.481,1.481,0,0,1,234.879,418.967Z" transform="translate(-225.719 -412.601)" fill="#f9e6d9"/>
    </g>
    <circle id="Ellipse_44" data-name="Ellipse 44" cx="2.195" cy="2.195" r="2.195" transform="translate(2864.906 -69.382)" fill="#3699ff"/>
    <path id="Path_192" data-name="Path 192" d="M258.861,461.361a3.006,3.006,0,1,0,6.011,0" transform="translate(2605.339 -509.138)" fill="#3699ff"/>
    <path id="Path_193" data-name="Path 193" d="M143,25.326H139.7V15.487a2.726,2.726,0,0,0,0-5.348V.531A.531.531,0,0,0,139.165,0h-.177a12.163,12.163,0,0,0-5.926,1.643,12.387,12.387,0,0,0-4.289,4.17.531.531,0,0,0,.9.56,11.129,11.129,0,0,1,8.959-5.3v9.064a2.726,2.726,0,0,0,0,5.348v9.839h-2.883a1.381,1.381,0,0,1-1.374-1.381,2.8,2.8,0,0,0-1.272-2.358,11.14,11.14,0,0,1-4.239-13.639.531.531,0,1,0-.98-.41,12.2,12.2,0,0,0,4.641,14.94,1.738,1.738,0,0,1,.788,1.466,2.428,2.428,0,0,0,.716,1.728c.024.024.048.047.073.07a2.01,2.01,0,0,0-.789,1.6v.22a2.007,2.007,0,0,0,.652,1.481,2.008,2.008,0,0,0-.652,1.481v.22a2.015,2.015,0,0,0,2.013,2.013h.342a3.537,3.537,0,0,0,6.994,0H143a2.015,2.015,0,0,0,2.013-2.013v-.22a2.007,2.007,0,0,0-.652-1.481,2.007,2.007,0,0,0,.652-1.481v-.22A2.014,2.014,0,0,0,143,25.326ZM140.83,12.813A1.667,1.667,0,0,1,139.7,14.39V11.237A1.667,1.667,0,0,1,140.83,12.813Zm-3.328,0a1.667,1.667,0,0,1,1.133-1.577V14.39A1.666,1.666,0,0,1,137.5,12.813ZM139.166,34.7a2.478,2.478,0,0,1-2.417-1.943h4.833A2.478,2.478,0,0,1,139.166,34.7Zm2.587-6.189a.531.531,0,1,0,0,1.062H143a.951.951,0,0,1,.95.95v.22a.951.951,0,0,1-.95.95h-7.678a.951.951,0,0,1-.95-.95v-.22a.951.951,0,0,1,.95-.95h6.656a.531.531,0,1,0,0-1.062h-6.656a.951.951,0,0,1-.95-.95v-.22a.951.951,0,0,1,.95-.95H143a.951.951,0,0,1,.95.95v.22a.951.951,0,0,1-.95.95Z" transform="translate(2728.04 -80)" fill="#494b74"/>
    <path id="Path_194" data-name="Path 194" d="M327.593,21.863l-2.878-.518a9.529,9.529,0,0,0-1.366-2.362l.992-2.755a.531.531,0,0,0-.234-.64l-4.363-2.519a.531.531,0,0,0-.671.117l-2.081,2.464a.531.531,0,0,0,.811.685l1.795-2.125,3.593,2.075-.943,2.619a.531.531,0,0,0,.093.522A8.481,8.481,0,0,1,323.826,22a.531.531,0,0,0,.405.341l2.736.492v4.149l-2.736.493a.531.531,0,0,0-.4.341,8.5,8.5,0,0,1-1.486,2.569.531.531,0,0,0-.093.522l.943,2.619L319.6,35.6,317.8,33.472a.531.531,0,1,0-.811.685l2.081,2.464a.531.531,0,0,0,.671.117l4.363-2.519a.531.531,0,0,0,.234-.64l-.992-2.754a9.544,9.544,0,0,0,1.366-2.362l2.878-.518a.531.531,0,0,0,.437-.523V22.386A.531.531,0,0,0,327.593,21.863Z" transform="translate(2551.385 -92.091)" fill="#494b74"/>
    <path id="Path_195" data-name="Path 195" d="M317.221,120.259a.531.531,0,1,0,.35,1,5.315,5.315,0,0,0,0-10.034.531.531,0,1,0-.35,1,4.253,4.253,0,0,1,0,8.029Z" transform="translate(2551.386 -183.432)" fill="#494b74"/>
    <path id="Path_196" data-name="Path 196" d="M39.729,126.176a.531.531,0,0,0,.1-1.052l-3.908-.777a.531.531,0,1,0-.207,1.042l3.908.777A.541.541,0,0,0,39.729,126.176Z" transform="translate(2813.295 -195.652)" fill="#494b74"/>
    <path id="Path_197" data-name="Path 197" d="M95.933,2.673,98.927,5.3a.531.531,0,0,0,.7-.8L96.634,1.874a.531.531,0,1,0-.7.8Z" transform="translate(2757.055 -81.621)" fill="#494b74"/>
    <path id="Path_198" data-name="Path 198" d="M123.68,331.645a.531.531,0,0,0-.75.049l-2.626,2.995a.531.531,0,0,0,.8.7l2.626-2.995A.531.531,0,0,0,123.68,331.645Z" transform="translate(2734.34 -388.359)" fill="#494b74"/>
    <path id="Path_199" data-name="Path 199" d="M48.366,242.435l-3.771,1.28a.531.531,0,1,0,.341,1.006l3.771-1.28a.531.531,0,1,0-.341-1.006Z" transform="translate(2804.975 -305.477)" fill="#494b74"/>
    <path id="Path_200" data-name="Path 200" d="M133.1,8.1a11.14,11.14,0,0,0-4.239,13.639.531.531,0,1,1-.98.41,12.2,12.2,0,0,1,4.641-14.94S133.9,7.586,133.1,8.1Z" transform="translate(2728.052 -85.241)" fill="#494b74"/>
  </g>
</svg>
