<svg xmlns="http://www.w3.org/2000/svg" width="27.119" height="35.76" viewBox="0 0 27.119 35.76">
  <g id="pro-cost-icon" transform="translate(-61.857 0.001)">
    <path id="XMLID_1492_" d="M166.27,113.322H155.327a1.676,1.676,0,1,1,0-3.353H166.27a1.676,1.676,0,0,1,0,3.353Z" transform="translate(-85.383 -102.288)" fill="#3699ff"/>
    <path id="XMLID_1491_" d="M87.983,182H81.625a9.66,9.66,0,0,1-8.144-14.855l5.851-9.173H90.275l5.851,9.173A9.66,9.66,0,0,1,87.983,182Z" transform="translate(-9.388 -146.936)" fill="#f9e6d9"/>
    <path id="XMLID_1489_" d="M151.509,10.578a2.061,2.061,0,0,1,2.915,0l.005.005a2.061,2.061,0,0,0,2.91.005l.021-.02a2.061,2.061,0,0,1,2.91.005l.005.005a2.061,2.061,0,0,0,2.915,0,2.061,2.061,0,0,1,2.915,0l-1.824,6.376H153.337Z" transform="translate(-83.39 -9.273)" fill="#f9e6d9"/>
    <g id="XMLID_1153_" transform="translate(61.857 -0.001)">
      <path id="XMLID_1329_" d="M87.328,19.831l-5.339-8.37a2.373,2.373,0,0,0-.221-4.308L83.385,1.5a.7.7,0,0,0-.178-.686,2.763,2.763,0,0,0-3.9,0,1.354,1.354,0,0,1-.964.4,1.355,1.355,0,0,1-.965-.4l0,0A2.765,2.765,0,0,0,73.476.8l-.02.02a1.365,1.365,0,0,1-1.924,0L71.528.811a2.763,2.763,0,0,0-3.9,0,.7.7,0,0,0-.178.686l1.621,5.653a2.373,2.373,0,0,0-.224,4.31l-5.34,8.37A10.358,10.358,0,0,0,72.237,35.76H78.6a10.358,10.358,0,0,0,8.733-15.929ZM70.54,1.8l.005.005a2.765,2.765,0,0,0,3.9.006l.02-.02a1.366,1.366,0,0,1,1.925.005l0,0a2.763,2.763,0,0,0,3.9,0,1.365,1.365,0,0,1,1.619-.231L80.363,6.982h-9.89L68.921,1.567A1.365,1.365,0,0,1,70.54,1.8ZM86.453,29.709A8.844,8.844,0,0,1,78.6,34.363H72.237a8.961,8.961,0,0,1-7.555-13.781l5.645-8.85h1.945a.7.7,0,1,0,0-1.4H69.945a.978.978,0,1,1,0-1.956H80.888a.978.978,0,1,1,0,1.956H71.559a.7.7,0,0,0,0,1.4H80.5l5.646,8.85a8.844,8.844,0,0,1,.3,9.127Z" transform="translate(-61.857 0.001)" fill="#494b74"/>
      <path id="XMLID_1341_" d="M213.126,244.159c-.175-.062-.354-.126-.533-.193V240.8a2.87,2.87,0,0,1,.8.375.7.7,0,0,0,.84-1.116,4.266,4.266,0,0,0-1.644-.7v-.7a.7.7,0,1,0-1.4,0v.69a3.606,3.606,0,0,0-.36.088,2.8,2.8,0,0,0-1.918,2.194,2.467,2.467,0,0,0,.808,2.431,6.724,6.724,0,0,0,1.47.835v4.051a2.792,2.792,0,0,1-1.531-.561.7.7,0,0,0-.765,1.169,4.123,4.123,0,0,0,2.3.79v.722a.7.7,0,1,0,1.4,0v-.795a3.367,3.367,0,0,0,2.567-2.743A2.955,2.955,0,0,0,213.126,244.159Zm-2.538-1.186a1.089,1.089,0,0,1-.3-1.073,1.422,1.422,0,0,1,.9-1.1v2.558A4.179,4.179,0,0,1,210.589,242.973Zm3.194,4.336a2,2,0,0,1-1.189,1.513v-3.369l.067.024A1.581,1.581,0,0,1,213.782,247.308Z" transform="translate(-198.335 -221.348)" fill="#494b74"/>
    </g>
  </g>
</svg>
