<svg xmlns="http://www.w3.org/2000/svg" width="36.19" height="35.76" viewBox="0 0 36.19 35.76">
  <g id="pro-expenses-icon" transform="translate(-3672.707 398)">
    <g id="Group_88" data-name="Group 88" transform="translate(3673.237 -376.299)">
      <path id="Path_202" data-name="Path 202" d="M17.41,77.1a4.672,4.672,0,0,1-6.086,1.317,4.812,4.812,0,0,1-.415-.316,4.471,4.471,0,0,1-.9-6.376,4.456,4.456,0,0,1,6.33-1.1,4.862,4.862,0,0,1,.435.279A4.672,4.672,0,0,1,17.41,77.1Z" transform="translate(-8.959 -69.683)" fill="#f9e6d9"/>
      <g id="Group_87" data-name="Group 87" transform="translate(0 0)">
        <path id="Path_203" data-name="Path 203" d="M15.4,78.883a4.671,4.671,0,1,0-5.441,7.489A4.672,4.672,0,0,1,15.4,78.883Z" transform="translate(-7.495 -77.582)" fill="#f9e6d9"/>
        <ellipse id="Ellipse_45" data-name="Ellipse 45" cx="2.297" cy="2.297" rx="2.297" ry="2.297" transform="translate(2.375 2.375)" fill="#f9e6d9"/>
      </g>
    </g>
    <g id="Group_90" data-name="Group 90" transform="translate(3699.024 -376.224)">
      <path id="Path_204" data-name="Path 204" d="M382.37,71.524a4.672,4.672,0,0,1-.737,6.184,4.8,4.8,0,0,1-.434.29,4.625,4.625,0,0,1-5.3-7.573,4.88,4.88,0,0,1,.405-.321A4.672,4.672,0,0,1,382.37,71.524Z" transform="translate(-373.871 -69.532)" fill="#f9e6d9"/>
      <g id="Group_89" data-name="Group 89" transform="translate(0 0.516)">
        <path id="Path_205" data-name="Path 205" d="M374.852,68.694a4.672,4.672,0,1,0,5.309,7.583,4.672,4.672,0,0,1-5.309-7.583Z" transform="translate(-372.314 -68.694)" fill="#f9e6d9"/>
        <ellipse id="Ellipse_46" data-name="Ellipse 46" cx="2.297" cy="2.297" rx="2.297" ry="2.297" transform="translate(2.375 1.859)" fill="#f9e6d9"/>
      </g>
    </g>
    <g id="Group_91" data-name="Group 91" transform="translate(3682.991 -397.47)">
      <path id="Path_206" data-name="Path 206" d="M163.095,287.468a7.849,7.849,0,0,1-7.268,7.827c-.191.014-.314-.011-.509-.011a7.811,7.811,0,0,1,0-15.622c.173,0,.272-.036.443-.025A7.849,7.849,0,0,1,163.095,287.468Z" transform="translate(-147.398 -279.62)" fill="#f9e6d9"/>
      <path id="Path_207" data-name="Path 207" d="M153.989,279.422q-.319-.025-.644-.026a7.848,7.848,0,0,0,0,15.7q.325,0,.644-.026a7.849,7.849,0,0,1,0-15.645Z" transform="translate(-145.497 -279.396)" fill="#f9e6d9" opacity="0.07"/>
      <path id="Path_209" data-name="Path 209" d="M185.738,313.6a5.433,5.433,0,1,0,0,10.791,5.434,5.434,0,0,1,0-10.791Z" transform="translate(-177.246 -311.145)" fill="#f9e6d9"/>
    </g>
    <g id="Group_93" data-name="Group 93" transform="translate(3688.366 -379.592)">
      <path id="Path_210" data-name="Path 210" d="M226.577,179.726l-2.075,2.829-.213.15a.353.353,0,0,1-.57,0l-2.147-2.908a.212.212,0,0,1,.171-.337l.516-.071h.736l.071-1.111a.353.353,0,0,1,.353-.353l.565-.071h.675a.353.353,0,0,1,.353.353v1.182h1.394A.212.212,0,0,1,226.577,179.726Z" transform="translate(-221.529 -177.853)" fill="#3699ff"/>
    </g>
    <g id="Group_95" data-name="Group 95" transform="translate(3695.584 -381.805)">
      <path id="Path_213" data-name="Path 213" d="M327.859,215.3l-.077,3.508-.089.245a.353.353,0,0,1-.467.327l-3.427-1.15a.212.212,0,0,1-.054-.374l.382-.354.6-.422-.58-.951a.353.353,0,0,1,.087-.492l.422-.382.553-.387a.353.353,0,0,1,.492.087l.678.968,1.142-.8A.212.212,0,0,1,327.859,215.3Z" transform="translate(-323.655 -214.803)" fill="#3699ff"/>
    </g>
    <g id="Group_97" data-name="Group 97" transform="translate(3681.992 -381.789)">
      <path id="Path_216" data-name="Path 216" d="M135.5,219.329l-3.323,1.127h-.261a.353.353,0,0,1-.467-.327l-.091-3.614a.212.212,0,0,1,.334-.178l.464.238.6.422.7-.87a.353.353,0,0,1,.492-.087l.5.266.553.387a.353.353,0,0,1,.087.492l-.678.968,1.142.8a.212.212,0,0,1-.054.375Z" transform="translate(-131.355 -215.977)" fill="#3699ff"/>
    </g>
    <g id="Group_99" data-name="Group 99" transform="translate(3686.168 -372.113)">
      <path id="Path_219" data-name="Path 219" d="M202.4,15.506a4.672,4.672,0,0,1-4.15,4.643,4.8,4.8,0,0,1-.521-.011,4.471,4.471,0,0,1-4.472-4.631,4.456,4.456,0,0,1,4.472-4.613,4.876,4.876,0,0,1,.516-.03A4.672,4.672,0,0,1,202.4,15.506Z" transform="translate(-193.057 -10.834)" fill="#f9e6d9"/>
      <g id="Group_98" data-name="Group 98" transform="translate(0 0)">
        <path id="Path_220" data-name="Path 220" d="M195.748,10.583a4.721,4.721,0,0,0-.636-.043,4.671,4.671,0,0,0,0,9.343,4.721,4.721,0,0,0,.636-.043,4.672,4.672,0,0,1,0-9.257Z" transform="translate(-190.44 -10.54)" fill="#f9e6d9"/>
        <ellipse id="Ellipse_47" data-name="Ellipse 47" cx="2.297" cy="2.297" rx="2.297" ry="2.297" transform="translate(2.374 2.374)" fill="#f9e6d9"/>
      </g>
    </g>
    <path id="Path_221" data-name="Path 221" d="M181.21,315.155a.53.53,0,0,1-.076.746,6.024,6.024,0,1,1,2.22-4.671,5.973,5.973,0,0,1-.57,2.562.53.53,0,0,1-.959-.451,4.964,4.964,0,1,0-4.494,2.853,4.973,4.973,0,0,0,3.134-1.114A.53.53,0,0,1,181.21,315.155Z" transform="translate(3513.509 -700.852)" fill="#494b74"/>
    <path id="Path_222" data-name="Path 222" d="M146.374,288.652a8.314,8.314,0,0,1-6-2.531.53.53,0,0,1,.759-.74,7.295,7.295,0,1,0-1.327-1.876.53.53,0,1,1-.951.469,8.3,8.3,0,0,1-.859-3.7,8.378,8.378,0,1,1,8.378,8.378Z" transform="translate(3544.465 -669.896)" fill="#494b74"/>
    <path id="Path_223" data-name="Path 223" d="M232.482,344.534a.53.53,0,0,0,.53-.53v-.373a1.89,1.89,0,0,0,1.272-1.518,1.7,1.7,0,0,0-1.129-1.947,3.892,3.892,0,0,1-1.14-.5.576.576,0,0,1-.139-.481.548.548,0,0,1,.328-.383.987.987,0,0,1,.881.158.53.53,0,0,0,.673-.819,2.22,2.22,0,0,0-.746-.375V337.5a.53.53,0,0,0-1.06,0v.268a1.677,1.677,0,0,0-1.116,1.217,1.634,1.634,0,0,0,.387,1.389,2.707,2.707,0,0,0,1.271.686.955.955,0,0,1,.745.877.826.826,0,0,1-.79.723,1.461,1.461,0,0,1-.975-.371.53.53,0,0,0-.58.888,2.893,2.893,0,0,0,1.058.5V344A.53.53,0,0,0,232.482,344.534Z" transform="translate(3458.357 -730.377)" fill="#494b74"/>
    <path id="Path_224" data-name="Path 224" d="M10.4,67.46a5.2,5.2,0,1,1-5.2-5.2A5.207,5.207,0,0,1,10.4,67.46ZM5.2,63.318A4.141,4.141,0,1,0,9.343,67.46,4.146,4.146,0,0,0,5.2,63.318Z" transform="translate(3672.707 -439.087)" fill="#494b74"/>
    <path id="Path_225" data-name="Path 225" d="M370.261,71.666a.53.53,0,0,1-.048-1.059,4.139,4.139,0,1,0-2.126-.474.53.53,0,1,1-.5.937,5.2,5.2,0,1,1,2.67.6Z" transform="translate(3333.675 -438.023)" fill="#494b74"/>
    <path id="Path_226" data-name="Path 226" d="M188.14,3.04a5.2,5.2,0,1,1-5.2,5.2A5.208,5.208,0,0,1,188.14,3.04Zm0,9.343A4.141,4.141,0,1,0,184,8.242,4.146,4.146,0,0,0,188.14,12.383Z" transform="translate(3502.7 -375.683)" fill="#494b74"/>
    <path id="Path_227" data-name="Path 227" d="M298.988,217.6h0Z" transform="translate(3394.853 -595.005)" fill="#494b74"/>
    <path id="Path_228" data-name="Path 228" d="M214.517,168.352h1.311a.885.885,0,0,1,.884.884v.652h.864a.742.742,0,0,1,.6,1.181l-2.289,3.12a.884.884,0,0,1-1.425,0l-2.289-3.12a.742.742,0,0,1,.6-1.181h.864v-.652A.884.884,0,0,1,214.517,168.352Zm2.8,2.089h0Zm-3.921.506,1.775,2.42,1.775-2.42h-.766a.53.53,0,0,1-.53-.53v-1.005h-.958v1.005a.53.53,0,0,1-.53.53Z" transform="translate(3475.667 -548.474)" fill="#494b74"/>
    <path id="Path_229" data-name="Path 229" d="M319.463,211.785a.887.887,0,0,1-.791.113l-3.665-1.243a.742.742,0,0,1-.187-1.311l.707-.5-.374-.534a.885.885,0,0,1,.217-1.231l1.074-.752a.884.884,0,0,1,1.23.217l.374.534.707-.5a.742.742,0,0,1,1.168.624h0l-.085,3.869A.886.886,0,0,1,319.463,211.785Zm-1.239-3.529a.53.53,0,0,1-.738-.13l-.577-.824-.785.549.577.824a.53.53,0,0,1-.13.738l-.627.439,2.842.964.066-3Z" transform="translate(3380.434 -588.543)" fill="#494b74"/>
    <path id="Path_230" data-name="Path 230" d="M123.674,207.082l.374-.534a.884.884,0,0,1,1.231-.217l1.074.752a.885.885,0,0,1,.217,1.231l-.374.534.708.5a.742.742,0,0,1-.187,1.311h0l-3.665,1.243a.884.884,0,0,1-1.167-.817l-.085-3.869a.742.742,0,0,1,1.168-.624Zm-.735,3.733,2.842-.964-.627-.439a.53.53,0,0,1-.13-.738l.577-.824-.785-.549-.577.824a.53.53,0,0,1-.738.13l-.627-.439Z" transform="translate(3559.518 -588.542)" fill="#494b74"/>
    <path id="Path_231" data-name="Path 231" d="M36.418,101.5a2.827,2.827,0,1,1,2.827-2.827A2.831,2.831,0,0,1,36.418,101.5Zm0-4.594a1.767,1.767,0,1,0,1.767,1.767A1.769,1.769,0,0,0,36.418,96.908Z" transform="translate(3641.491 -470.303)" fill="#494b74"/>
    <path id="Path_232" data-name="Path 232" d="M217.614,39.4a.53.53,0,0,1,.626.413,1.767,1.767,0,1,0,1.731-2.124,1.747,1.747,0,0,0-1.11.392.53.53,0,1,1-.667-.824,2.827,2.827,0,1,1-.993,2.769A.53.53,0,0,1,217.614,39.4Z" transform="translate(3470.869 -406.9)" fill="#494b74"/>
    <path id="Path_233" data-name="Path 233" d="M398.409,97.617a2.827,2.827,0,1,1,2.827,2.827A2.831,2.831,0,0,1,398.409,97.617Zm2.827,1.767a1.767,1.767,0,1,0-1.767-1.767A1.769,1.769,0,0,0,401.236,99.384Z" transform="translate(3302.459 -469.17)" fill="#494b74"/>
    <path id="Path_234" data-name="Path 234" d="M173.451,315.155a.53.53,0,0,0,.076.746,6.024,6.024,0,1,0-2.22-4.671,5.973,5.973,0,0,0,.57,2.562.53.53,0,0,0,.959-.451,4.965,4.965,0,1,1,4.494,2.853,4.973,4.973,0,0,1-3.134-1.114A.53.53,0,0,0,173.451,315.155Z" transform="translate(3513.509 -700.852)" fill="#494b74"/>
    <path id="Path_235" data-name="Path 235" d="M146.374,271.9a8.314,8.314,0,0,0-6,2.531.53.53,0,0,0,.759.74,7.295,7.295,0,1,1-1.327,1.876.53.53,0,1,0-.951-.469,8.3,8.3,0,0,0-.859,3.7,8.378,8.378,0,1,0,8.378-8.378Z" transform="translate(3544.465 -669.896)" fill="#494b74"/>
    <path id="Path_236" data-name="Path 236" d="M370.261,61.269a.53.53,0,0,0-.048,1.059,4.139,4.139,0,1,1-2.126.474.53.53,0,1,0-.5-.937,5.2,5.2,0,1,0,2.67-.6Z" transform="translate(3333.675 -438.023)" fill="#494b74"/>
    <path id="Path_237" data-name="Path 237" d="M222.374,39.4a.53.53,0,0,0-.626.413,1.767,1.767,0,1,1-1.731-2.124,1.747,1.747,0,0,1,1.11.392.53.53,0,1,0,.667-.824,2.827,2.827,0,1,0,.993,2.769A.53.53,0,0,0,222.374,39.4Z" transform="translate(3470.869 -406.9)" fill="#494b74"/>
  </g>
</svg>
