<svg xmlns="http://www.w3.org/2000/svg" width="16.572" height="15.149" viewBox="0 0 16.572 15.149">
  <g id="warning" transform="translate(0 -20.882)">
    <g id="Group_29" data-name="Group 29" transform="translate(0 20.882)">
      <path id="Path_125" data-name="Path 125" d="M219.077,333.382a.852.852,0,1,0,0,1.7.852.852,0,0,0,0-1.7Z" transform="translate(-210.791 -322.737)" fill="#fff"/>
      <path id="Path_126" data-name="Path 126" d="M16.168,34.546a2.908,2.908,0,0,0,.007-2.943L10.84,22.364a2.939,2.939,0,0,0-5.1,0L.4,31.609A2.95,2.95,0,0,0,2.95,36.031H13.606A2.934,2.934,0,0,0,16.168,34.546Zm-1.158-.668a1.61,1.61,0,0,1-1.407.814H2.947a1.588,1.588,0,0,1-1.39-.8,1.612,1.612,0,0,1,0-1.625L6.9,23.025a1.6,1.6,0,0,1,2.787,0l5.338,9.245A1.591,1.591,0,0,1,15.01,33.878Z" transform="translate(0 -20.882)" fill="#fff"/>
      <path id="Path_127" data-name="Path 127" d="M218.382,157.2a.926.926,0,0,0-.657.93c.02.269.037.542.058.811.058,1.025.116,2.03.174,3.056a.624.624,0,0,0,.637.6.637.637,0,0,0,.637-.62c0-.211,0-.405.02-.62.037-.657.078-1.315.116-1.972.02-.426.058-.852.078-1.277a1.052,1.052,0,0,0-.078-.426A.854.854,0,0,0,218.382,157.2Z" transform="translate(-210.308 -152.533)" fill="#fff"/>
    </g>
  </g>
</svg>
